<?xml version="1.0" encoding="utf-8"?>
<!-- Generator: Adobe Illustrator 28.0.0, SVG Export Plug-In . SVG Version: 6.00 Build 0)  -->
<svg version="1.1" id="Layer_1" xmlns="http://www.w3.org/2000/svg" xmlns:xlink="http://www.w3.org/1999/xlink" x="0px" y="0px"
	 viewBox="0 0 273.16 283.28" style="enable-background:new 0 0 273.16 283.28;" xml:space="preserve">
<style type="text/css">
	.st0{fill:#25414D;}
	.st1{fill:#C6A772;}
	.st2{fill:#FFFFFF;}
	.st3{fill:url(#SVGID_1_);}
	.st4{fill:url(#SVGID_00000106827144052241786300000001096059006571866553_);}
	.st5{fill:url(#SVGID_00000123419849234386278270000006538941421259916189_);}
	.st6{fill:url(#SVGID_00000176023103267784487980000014438052042428842669_);}
	.st7{fill:url(#SVGID_00000167375467050703915060000015340167429320300160_);}
</style>
<g>
	<linearGradient id="SVGID_1_" gradientUnits="userSpaceOnUse" x1="-25.2268" y1="-67.311" x2="495.8732" y2="528.489">
		<stop  offset="1.385225e-07" style="stop-color:#C6A772"/>
		<stop  offset="1" style="stop-color:#25414D"/>
	</linearGradient>
	<path class="st3" d="M229.69,43.76c-2.23,1.36-4.58,2.49-6.98,3.51c-3.91,1.66-7.95,2.93-12.09,3.86
		c-1.48,0.33-2.96,0.61-4.46,0.84c-1.26,0.19-2.52,0.35-3.79,0.47c-0.79,0.08-1.59,0.11-2.38,0.17c-1.91,0.14-3.82,0.13-5.73,0.09
		c-1.09-0.02-2.19-0.09-3.28-0.19c-0.59-0.05-1.19-0.1-1.78-0.17c-0.69-0.08-1.38-0.16-2.07-0.26c-1.04-0.16-2.08-0.34-3.12-0.54
		c-2.56-0.5-5.08-1.17-7.55-1.99c-5.55-1.83-10.75-4.39-15.66-7.55c-3.84-2.47-7.44-5.27-10.83-8.33
		c-3.6-3.25-6.93-6.75-10.04-10.46c-0.95-1.13-1.86-2.29-2.78-3.43c-0.09-0.11-0.17-0.22-0.26-0.33c-0.17-0.21-0.22-0.21-0.38,0.05
		c-0.01,0.02-0.02,0.03-0.03,0.05c-1.36,2.2-2.9,4.28-4.53,6.3c-2.04,2.53-4.24,4.91-6.57,7.17c-0.99,0.96-2.04,1.84-3.09,2.72
		c-4.09,3.38-8.44,6.39-13.03,9.05c-3.71,2.16-7.63,3.86-11.72,5.16c-2.52,0.8-5.09,1.45-7.69,1.95c-1.39,0.26-2.78,0.49-4.18,0.66
		c-0.97,0.12-1.94,0.21-2.91,0.29c-2.4,0.2-4.81,0.25-7.22,0.2c-1.25-0.02-2.51-0.09-3.76-0.19c-0.65-0.05-1.31-0.1-1.96-0.16
		c-0.79-0.08-1.58-0.17-2.37-0.28c-0.67-0.09-1.34-0.2-2.01-0.3c-1.24-0.18-2.47-0.42-3.7-0.67c-6-1.23-11.81-3.08-17.47-5.41
		c-0.27-0.11-0.54-0.26-0.85-0.27c0,26.25,0,52.5,0,78.75c0.03,0.05,0.08,0.09,0.1,0.15c0.02,0.1,0.03,0.2,0.03,0.29
		c0.01,0.58,0.01,1.15,0.05,1.73c0.04,0.61,0.02,1.23,0.02,1.85c0.03,3.46,0.05,6.93,0.09,10.39c0.02,2.21,0.06,4.42,0.09,6.63
		c0.04,2.25,0.08,4.5,0.13,6.75c0.04,1.85,0.08,3.7,0.13,5.55c0.06,2.35,0.14,4.7,0.19,7.05c0.03,1.21,0.08,2.43,0.15,3.64
		c0.07,1.13,0.15,2.26,0.29,3.39c0.1,0.81,0.18,1.62,0.29,2.43c0.11,0.85,0.24,1.69,0.38,2.54c0.23,1.39,0.5,2.78,0.79,4.16
		c1.91,8.98,5.34,17.32,10.52,24.92c2.18,3.2,4.62,6.19,7.26,9.02c3.99,4.28,8.4,8.08,13.18,11.46c2.46,1.73,4.97,3.38,7.49,5.01
		c2.63,1.69,5.26,3.38,7.87,5.09c3.36,2.21,6.69,4.46,10.05,6.66c9.68,6.35,19.37,12.71,29.11,18.97c0.6,0.39,1.23,0.74,1.89,1.01
		c0.74,0.3,1.5,0.52,2.29,0.64c0.1,0.01,0.2,0.03,0.27,0.11c1.04,0,2.07,0,3.11,0c0.09-0.09,0.21-0.09,0.33-0.11
		c0.61-0.1,1.2-0.27,1.78-0.5c1.33-0.53,2.42-1.36,3.25-2.53c0.94-1.32,1.53-2.79,1.8-4.38c0.17-0.96,0.24-1.94,0.24-2.91
		c-0.01-4.1-0.01-8.21-0.01-12.31c-0.01-18.52-0.02-37.04-0.02-55.56c0-23.54,0-47.08,0-70.62c0-0.24,0-0.48-0.01-0.72
		c0-0.18-0.08-0.26-0.25-0.27c-0.14-0.01-0.28-0.01-0.42-0.01c-1.47,0-2.95-0.01-4.42-0.01c-4.22-0.01-8.44-0.01-12.66-0.01
		c-5.06,0-10.11,0-15.17-0.01c-0.24,0-0.48,0-0.72,0c-2.81,0-5.61,0-8.42,0c-0.08,0-0.16,0.01-0.24,0.02
		c-0.01,0-0.03,0.03-0.03,0.04c0,0.04,0,0.09,0.03,0.1c0.1,0.07,0.2,0.13,0.31,0.18c0.52,0.25,1.04,0.49,1.57,0.73
		c1.14,0.52,2.29,1.02,3.43,1.55c1.97,0.91,3.88,1.94,5.71,3.1c2.19,1.39,4.23,2.98,6.05,4.83c4.35,4.42,6.81,9.74,7.46,15.9
		c0.12,1.11,0.16,2.22,0.16,3.34c-0.01,5.52-0.01,11.03-0.01,16.55c-0.01,6.27-0.01,12.55-0.02,18.82c0,2.71-0.01,5.42-0.02,8.13
		c-0.01,3.11-0.02,6.21-0.04,9.32c-0.01,2.01-0.01,4.02-0.02,6.03c-0.01,3.19-0.01,6.37-0.02,9.56c-0.01,4.82-0.01,9.64-0.01,14.46
		c0,3.25,0,6.49,0,9.74c0,1.14-0.01,2.27-0.02,3.41c-0.01,0.56-0.06,1.11-0.21,1.65c-0.06,0.21-0.14,0.41-0.22,0.62
		c-0.08,0.18-0.2,0.35-0.34,0.49c-0.22,0.22-0.48,0.35-0.79,0.38c-0.41,0.04-0.79-0.04-1.17-0.19c-0.45-0.18-0.86-0.42-1.26-0.67
		c-2.5-1.6-5-3.19-7.5-4.79c-3.35-2.14-6.69-4.31-9.98-6.56c-1.4-0.96-2.78-1.93-4.19-2.86c-2.69-1.78-5.4-3.53-8.1-5.29
		c-2.69-1.75-5.37-3.5-8-5.33c-3.06-2.13-6.04-4.35-8.89-6.76c-1.64-1.39-3.23-2.83-4.72-4.4c-4.15-4.37-7.43-9.33-10.06-14.74
		c-1.37-2.82-2.35-5.79-3.1-8.83c-0.68-2.75-1.16-5.53-1.53-8.33c-0.16-1.18-0.27-2.37-0.41-3.56c-0.05-0.46-0.09-0.91-0.14-1.37
		c-0.06-0.61-0.13-1.23-0.18-1.84c-0.06-0.65-0.11-1.31-0.16-1.96c-0.1-1.21-0.22-2.42-0.29-3.63c-0.1-1.67-0.19-3.34-0.24-5.01
		c-0.07-2.35-0.11-4.7-0.13-7.05c-0.04-3.09-0.04-6.17-0.09-9.26c-0.07-4.58-0.11-9.16-0.14-13.74c-0.03-4.68-0.03-9.36-0.04-14.04
		c0-2.91,0-5.82,0-8.72c0-2.77,0.01-5.54,0.01-8.3c0.01-6.49,0.02-12.98,0.02-19.48c0-1.91,0.01-3.82,0.01-5.74
		c0-1.87,0.01-3.74,0.01-5.62c0-0.14,0-0.28,0.01-0.42c0-0.04,0.02-0.08,0.02-0.12c0.01-0.05,0.09-0.1,0.14-0.09
		c0.1,0.02,0.2,0.04,0.29,0.06c2.01,0.57,4.06,0.97,6.13,1.27c0.69,0.1,1.38,0.19,2.07,0.27c0.55,0.07,1.11,0.13,1.66,0.18
		c0.77,0.07,1.55,0.11,2.32,0.17c1.55,0.12,3.1,0.14,4.65,0.17c1.31,0.03,2.63-0.04,3.94-0.08c0.97-0.03,1.95-0.1,2.92-0.15
		c0.06,0,0.12-0.01,0.18-0.02c0.69-0.06,1.39-0.12,2.08-0.18c0.55-0.05,1.11-0.1,1.66-0.17c0.79-0.09,1.58-0.19,2.37-0.31
		c1.16-0.17,2.33-0.32,3.48-0.52c2.29-0.41,4.56-0.91,6.82-1.5c5.78-1.51,11.32-3.62,16.63-6.36c1.8-0.93,3.57-1.93,5.3-3
		c1.76-1.1,3.47-2.26,5.15-3.47c2.56-1.83,5.04-3.76,7.39-5.86c1.52-1.35,2.98-2.76,4.3-4.31c0.04-0.05,0.08-0.09,0.12-0.13
		c0.04-0.04,0.13-0.05,0.16-0.02c0.14,0.11,0.28,0.22,0.42,0.33c2.54,2.11,5.08,4.23,7.62,6.34c2.04,1.69,4.13,3.31,6.33,4.79
		c3.67,2.48,7.48,4.7,11.49,6.58c3.3,1.55,6.7,2.85,10.16,4c2.34,0.78,4.72,1.44,7.12,1.99c1.45,0.33,2.92,0.61,4.39,0.85
		c0.61,0.1,1.22,0.2,1.83,0.25c1.05,0.1,2.1,0.17,3.16,0.23c1.13,0.07,2.27,0.12,3.4,0.17c1.65,0.07,3.3,0.15,4.95,0.18
		c3.18,0.06,6.37,0.07,9.55-0.11c0.56-0.03,1.11-0.08,1.66-0.15c0.97-0.12,1.93-0.24,2.89-0.42c0.45-0.08,0.9-0.14,1.37-0.14
		c0.14,0,0.28-0.01,0.41-0.04c0.87-0.2,1.74-0.42,2.56-0.8c0.05-0.03,0.11-0.05,0.16-0.07c0.11-0.05,0.21,0,0.22,0.11
		c0,0.12,0.01,0.24,0.01,0.36c0,3.39,0,6.77,0,10.16c0,0.14-0.01,0.28-0.01,0.42c0,0.07-0.08,0.15-0.15,0.16
		c-0.26,0.01-0.52,0.02-0.77,0.02c-37.33,0-74.65,0-111.98,0c-0.22,0-0.44,0-0.66,0c-0.08,0-0.16,0-0.24,0
		c-0.13,0-0.21,0.1-0.22,0.23c-0.01,0.16-0.01,0.32-0.01,0.48c0,2.85,0,5.7,0,8.54c0,0.14,0,0.28,0,0.42
		c0.01,0.22,0.07,0.29,0.28,0.3c0.24,0.01,0.48,0.01,0.72,0.01c41.79,0,83.57,0,125.36,0c0.22,0,0.44,0,0.66,0
		c0.1,0,0.2,0.02,0.3,0.03c0-13.94,0-27.88,0-41.82C229.73,43.75,229.71,43.75,229.69,43.76z"/>
	
		<linearGradient id="SVGID_00000044868653224027192760000017516782520047455150_" gradientUnits="userSpaceOnUse" x1="1.4458" y1="-90.6395" x2="522.5458" y2="505.1605">
		<stop  offset="1.385225e-07" style="stop-color:#C6A772"/>
		<stop  offset="1" style="stop-color:#25414D"/>
	</linearGradient>
	<path style="fill:url(#SVGID_00000044868653224027192760000017516782520047455150_);" d="M223.84,91.63c-12.3,0-24.61,0-36.91,0.01
		c-9.93,0-19.87,0.01-29.8,0.01c-17.76,0-35.51,0-53.27,0.01c-0.18,0-0.36,0-0.54,0c-0.08,0-0.16,0-0.24,0
		c-0.15,0.01-0.26,0.04-0.26,0.25c0,0.2,0,0.4,0,0.6c0,3.54,0,7.09,0,10.63c0,1.14-0.17,0.97,0.98,0.97c20.46,0,40.93,0,61.39,0
		c21.24,0,42.48,0,63.72,0c0.28,0,0.56-0.01,0.83-0.02c0-4.14,0-8.28,0-12.43c-0.1-0.01-0.2-0.01-0.3-0.01
		C227.58,91.64,225.71,91.63,223.84,91.63z"/>
	
		<linearGradient id="SVGID_00000119801499371058858600000011259392424468048261_" gradientUnits="userSpaceOnUse" x1="-12.6216" y1="-78.3358" x2="508.4784" y2="517.4642">
		<stop  offset="1.385225e-07" style="stop-color:#C6A772"/>
		<stop  offset="1" style="stop-color:#25414D"/>
	</linearGradient>
	<path style="fill:url(#SVGID_00000119801499371058858600000011259392424468048261_);" d="M229.47,114.15
		c-0.2-0.01-0.4-0.02-0.59-0.02c-5.35,0-10.71,0-16.06-0.01c-8.44,0-16.88,0-25.32,0c-0.31,0-0.63-0.06-0.94,0.05
		c-0.09,0.03-0.09,0.09-0.09,0.99c0,19.59,0,39.19,0,58.78s0,39.19,0,58.78c0,0.22,0,0.44,0,0.66c0,0.08,0.02,0.16,0.02,0.24
		c0,0.05,0.1,0.1,0.14,0.07c0.17-0.1,0.34-0.2,0.51-0.31c2.6-1.69,5.2-3.39,7.8-5.08c1.45-0.95,2.92-1.87,4.35-2.84
		c2.92-1.99,4.49-4.77,4.75-8.29c0.05-0.71,0.03-1.43,0.03-2.15c0-0.48-0.02-0.96-0.02-1.43c0-22.26,0-44.53,0-66.79
		c0-0.24,0-0.48,0-0.72c-0.01-1.2,0.11-2.39,0.29-3.57c0.36-2.31,1.02-4.54,1.97-6.68c0.94-2.12,2.11-4.1,3.48-5.97
		c1.75-2.39,3.76-4.53,5.96-6.5c2.86-2.56,5.97-4.77,9.27-6.71c1.36-0.8,2.74-1.54,4.16-2.22c0.11-0.05,0.21-0.12,0.31-0.18
		c0.01-0.01,0.01-0.04,0-0.05C229.49,114.18,229.48,114.15,229.47,114.15z"/>
	
		<linearGradient id="SVGID_00000099630621397829809380000010891845112836370610_" gradientUnits="userSpaceOnUse" x1="-48.811" y1="-46.6837" x2="472.289" y2="549.1163">
		<stop  offset="1.385225e-07" style="stop-color:#C6A772"/>
		<stop  offset="1" style="stop-color:#25414D"/>
	</linearGradient>
	<path style="fill:url(#SVGID_00000099630621397829809380000010891845112836370610_);" d="M176.69,150.41
		c0.02-0.54-0.04-1.08-0.13-1.61c-0.33-2.06-1.18-3.88-2.58-5.42c-1.78-1.95-4-3.05-6.63-3.28c-1.2-0.1-2.39,0.03-3.54,0.37
		c-4.44,1.29-7.29,5.33-7.29,9.64c0,0.22,0,0.44,0,0.66c0,16.75,0,33.49,0,50.24c0,16.97,0,33.93,0,50.9c0,0.2,0,0.4,0,0.6
		c0,0.08,0.01,0.16,0.01,0.24c0,0.08,0.1,0.14,0.17,0.1c0.14-0.08,0.27-0.16,0.41-0.25c5.29-3.5,10.59-7.01,15.88-10.51
		c0.22-0.14,0.43-0.29,0.63-0.45c1.7-1.35,2.7-3.1,3-5.26c0.06-0.46,0.07-0.91,0.07-1.37c0-28.08,0-56.16,0-84.23
		C176.69,150.64,176.69,150.53,176.69,150.41z"/>
	
		<linearGradient id="SVGID_00000095326378373951170140000002961755204250007705_" gradientUnits="userSpaceOnUse" x1="-11.8707" y1="-78.9926" x2="509.2293" y2="516.8074">
		<stop  offset="1.385225e-07" style="stop-color:#C6A772"/>
		<stop  offset="1" style="stop-color:#25414D"/>
	</linearGradient>
	<path style="fill:url(#SVGID_00000095326378373951170140000002961755204250007705_);" d="M166.53,114.11
		c-6.02,0.01-10.89,4.94-10.85,10.88c-0.05,5.74,4.59,10.86,10.85,10.88c6.05,0.01,10.87-4.85,10.89-10.84
		C177.42,118.82,172.36,114.1,166.53,114.11z"/>
</g>
</svg>
